<?xml version="1.0" encoding="utf-8"?>
<!-- Generator: Adobe Illustrator 24.3.0, SVG Export Plug-In . SVG Version: 6.00 Build 0)  -->
<svg version="1.1" id="Icon" xmlns="http://www.w3.org/2000/svg" xmlns:xlink="http://www.w3.org/1999/xlink" x="0px" y="0px"
	 viewBox="0 0 121.17 60.26" style="enable-background:new 0 0 121.17 60.26;" xml:space="preserve">
<style type="text/css">
	.st0{display:none;fill:#FFFFFF;}
	.st1{fill:#FFFFFF;}
</style>
<g>
	<g>
		<path d="M50.5,34.42c3.76,0,6.32,2.24,6.32,5.79c0,3.57-2.56,5.83-6.32,5.83h-6.05v-2.85h1.11v-5.93h-1.11v-2.84H50.5z
			 M50.5,42.88c1.57,0,2.68-1.09,2.68-2.67c0-1.56-1.11-2.65-2.68-2.65h-1.37v5.31H50.5z"/>
		<path d="M70,46.04h-5.28v-1.56l-1.32-1.73h-1.04v3.28h-4.68v-2.85h1.11v-5.93h-1.11v-2.84h6.36c3.23,0,5.11,1.56,5.11,4.24
			c0,1.5-0.68,2.68-1.91,3.38l0.97,1.15H70V46.04z M64.03,39.91c0.89,0,1.49-0.51,1.49-1.26c0-0.72-0.6-1.2-1.49-1.2h-1.67v2.46
			H64.03z"/>
		<path d="M75.57,43.19h1.23v2.85h-6.05v-2.85h1.23v-5.93h-1.23v-2.84h6.05v2.84h-1.23V43.19z"/>
		<path d="M88.18,46.04H78.04v-2.85h1.11v-5.93h-1.11v-2.84h6.22v2.84h-1.54v5.69h2.31v-1.49h3.14V46.04z"/>
		<path d="M99.18,46.04H89.05v-2.85h1.11v-5.93h-1.11v-2.84h6.22v2.84h-1.54v5.69h2.31v-1.49h3.14V46.04z"/>
		<path d="M107.9,39.04c1.9,0.41,3.06,1.33,3.06,3.38c0,2.46-1.67,3.88-4.34,3.88c-1.35,0-2.48-0.36-3.3-1.08v0.82h-2.87v-3.91h3.08
			c0.39,0.8,1.25,1.18,2.31,1.18c0.82,0,1.16-0.27,1.16-0.63c0-0.27-0.17-0.58-0.87-0.73l-2.31-0.5c-2.29-0.48-3.33-1.57-3.33-3.44
			c0-2.53,1.98-3.85,4.43-3.85c0.99,0,2.15,0.22,3.04,0.92v-0.67h2.84v3.71h-3.33c-0.26-0.6-0.87-1.06-1.81-1.06
			c-0.62,0-1.04,0.22-1.04,0.7c0,0.43,0.34,0.63,0.89,0.73L107.9,39.04z"/>
	</g>
</g>
<g>
	<g>
		<path d="M53.67,24.7c2.34,0.51,3.77,1.64,3.77,4.17c0,3.03-2.06,4.78-5.35,4.78c-1.66,0-3.05-0.44-4.06-1.33v1.01h-3.54v-4.82
			h3.79c0.48,0.99,1.54,1.45,2.84,1.45c1.01,0,1.43-0.34,1.43-0.78c0-0.34-0.21-0.72-1.07-0.91l-2.84-0.61
			c-2.82-0.59-4.11-1.94-4.11-4.23c0-3.12,2.44-4.74,5.45-4.74c1.22,0,2.65,0.27,3.75,1.14v-0.82h3.5v4.57h-4.11
			c-0.32-0.74-1.07-1.31-2.23-1.31c-0.76,0-1.28,0.27-1.28,0.86c0,0.53,0.42,0.78,1.09,0.91L53.67,24.7z"/>
		<path d="M74.95,33.33h-7.54v-2.99l-1.14-1.62l-1.79,1.87v2.74H58.7v-3.52h1.37v-7.31H58.7v-3.5h5.79v5.94l2.7-2.95v-2.99h7.45v3.5
			h-2.42l-2.84,2.97l2.97,4.34h2.61V33.33z"/>
		<path d="M81.83,29.82h1.52v3.52H75.9v-3.52h1.52v-7.31H75.9v-3.5h7.45v3.5h-1.52V29.82z"/>
		<path d="M97.37,33.33H84.88v-3.52h1.37v-7.31h-1.37v-3.5h7.67v3.5h-1.9v7.01h2.84v-1.83h3.88V33.33z"/>
		<path d="M110.93,33.33H98.44v-3.52h1.37v-7.31h-1.37v-3.5h7.67v3.5h-1.9v7.01h2.84v-1.83h3.88V33.33z"/>
	</g>
</g>
<circle class="st0" cx="-35.01" cy="32.02" r="19.04"/>
<g>
	<g>
		<g>
			<g>
				<g>
					<path d="M23.97,52.28c-5.26,0-10.02-2.13-13.46-5.57s-5.57-8.2-5.57-13.46c0-4.76,1.75-9.11,4.63-12.45s6.91-5.66,11.47-6.36
						v-1.58v-1.58h-1.28h-1.28c-0.3,0-0.58-0.12-0.78-0.32c-0.2-0.2-0.32-0.47-0.32-0.78V8.36V6.53c0-0.3,0.12-0.58,0.32-0.78
						s0.47-0.32,0.78-0.32h5.49h5.49c0.3,0,0.58,0.12,0.78,0.32s0.32,0.47,0.32,0.78c-0.01,0.62-0.01,1.2-0.01,1.79
						c0,0.59,0,1.2,0.01,1.87c0,0.3-0.12,0.58-0.32,0.78c-0.2,0.2-0.47,0.32-0.78,0.32h-1.28H26.9v1.58v1.58
						c1.72,0.27,3.36,0.76,4.89,1.45c1.53,0.69,2.95,1.58,4.24,2.63l1.26-1.26l1.26-1.26c0.22-0.22,0.5-0.32,0.78-0.32
						c0.28,0,0.56,0.11,0.78,0.32c0.49,0.52,0.89,0.93,1.29,1.32c0.4,0.4,0.8,0.79,1.3,1.27c0.21,0.21,0.32,0.5,0.32,0.78
						c0,0.28-0.11,0.56-0.32,0.78l-1.35,1.35l-1.35,1.35l-0.03,0.03l-0.03,0.03c0.97,1.48,1.74,3.11,2.26,4.85
						c0.52,1.74,0.81,3.59,0.81,5.5c0,5.26-2.13,10.02-5.57,13.46S29.23,52.28,23.97,52.28z"/>
					<rect x="38.02" y="17.1" transform="matrix(0.7071 0.7071 -0.7071 0.7071 24.5321 -23.7554)" width="5.83" height="1.28"/>
					<rect x="17.38" y="5.43" width="13.17" height="5.86"/>
				</g>
				<path class="st1" d="M39.73,33.26c0,4.35-1.76,8.29-4.62,11.14s-6.79,4.62-11.14,4.62s-8.29-1.76-11.14-4.62
					s-4.62-6.79-4.62-11.14s1.76-8.29,4.62-11.14s6.79-4.62,11.14-4.62s8.29,1.76,11.14,4.62S39.73,28.91,39.73,33.26z"/>
			</g>
			<g>
				<path d="M38.25,33.33c0,3.95-1.6,7.52-4.19,10.1c-2.59,2.59-6.16,4.19-10.1,4.19s-7.52-1.6-10.1-4.19
					c-2.59-2.59-4.19-6.16-4.19-10.1s1.6-7.52,4.19-10.1s6.16-4.19,10.1-4.19s7.52,1.6,10.1,4.19S38.25,29.39,38.25,33.33z"/>
			</g>
		</g>
		<polygon class="st1" points="23.85,18.26 23.96,33.33 38.66,33.26 37.77,27.64 33.68,22.15 29.53,19.6 		"/>
	</g>
	<g>
		<path class="st1" d="M19.83,34.39c2.95,0,4.96,1.71,4.96,4.42c0,2.73-2.01,4.45-4.96,4.45h-4.75v-2.18h0.87v-4.53h-0.87v-2.17
			H19.83z M19.83,40.85c1.23,0,2.11-0.83,2.11-2.04c0-1.19-0.87-2.02-2.11-2.02h-1.07v4.06H19.83z"/>
		<path class="st1" d="M34.23,43.27h-4.14v-1.19l-1.03-1.32h-0.82v2.5h-3.67v-2.18h0.87v-4.53h-0.87v-2.17h4.99
			c2.54,0,4.01,1.19,4.01,3.24c0,1.15-0.54,2.05-1.5,2.58l0.76,0.87h1.41V43.27z M29.55,38.58c0.7,0,1.17-0.39,1.17-0.97
			c0-0.55-0.47-0.91-1.17-0.91h-1.31v1.88H29.55z"/>
	</g>
	<g>
		<path class="st1" d="M21.45,27.74c1.61,0.33,2.6,1.07,2.6,2.71c0,1.97-1.42,3.1-3.69,3.1c-1.15,0-2.11-0.29-2.81-0.86v0.66h-2.44
			v-3.13h2.62c0.33,0.64,1.06,0.94,1.96,0.94c0.7,0,0.99-0.22,0.99-0.51c0-0.22-0.15-0.46-0.74-0.59l-1.96-0.4
			c-1.95-0.38-2.84-1.26-2.84-2.75c0-2.02,1.69-3.08,3.77-3.08c0.84,0,1.83,0.18,2.59,0.74v-0.53h2.41v2.97h-2.84
			c-0.22-0.48-0.74-0.85-1.54-0.85c-0.52,0-0.89,0.18-0.89,0.56c0,0.34,0.29,0.51,0.76,0.59L21.45,27.74z"/>
		<path d="M35.18,33.35h-5.21v-1.94l-0.79-1.05l-1.24,1.22v1.78h-4v-2.28h0.94v-4.74h-0.94v-2.27h4v3.86l1.86-1.91v-1.94h5.15v2.27
			h-1.67l-1.96,1.93l2.05,2.82h1.8V33.35z"/>
	</g>
</g>
</svg>
