<?xml version="1.0" encoding="utf-8"?>
<!-- Generator: Adobe Illustrator 25.0.1, SVG Export Plug-In . SVG Version: 6.00 Build 0)  -->
<svg version="1.1" id="Dark_BG" xmlns="http://www.w3.org/2000/svg" xmlns:xlink="http://www.w3.org/1999/xlink" x="0px" y="0px"
	 viewBox="0 0 1024 500" style="enable-background:new 0 0 1024 500;" xml:space="preserve">
<style type="text/css">
	.st0{fill:#00A4DD;}
	.st1{enable-background:new    ;}
	.st2{fill:#FFFFFF;}
	.st3{fill:#333333;}
</style>
<rect class="st0" width="1024" height="500"/>
<g>
	<g class="st1">
		<path class="st2" d="M456.7,214.8c10.3,2.2,16.6,7.2,16.6,18.4c0,13.3-9.1,21.1-23.7,21.1c-7.3,0-13.5-1.9-17.9-5.8v4.5h-15.6
			v-21.2h16.7c2.2,4.4,6.8,6.4,12.5,6.4c4.5,0,6.3-1.5,6.3-3.4c0-1.5-1-3.1-4.8-3.9l-12.5-2.7c-12.5-2.6-18.1-8.6-18.1-18.6
			c0-13.7,10.7-20.9,24.1-20.9c5.4,0,11.7,1.2,16.6,5v-3.7h15.4v20.1h-18.1c-1.4-3.3-4.8-5.7-9.8-5.7c-3.4,0-5.7,1.2-5.7,3.8
			c0,2.3,1.9,3.4,4.9,3.9L456.7,214.8z"/>
	</g>
	<g class="st1">
		<path class="st2" d="M550.7,253h-33.3v-13.2l-5-7.2l-7.9,8.3V253h-25.6v-15.6h6v-32.2h-6v-15.4h25.6V216l12-13.1v-13.2h32.9v15.4
			h-10.7l-12.5,13.1l13.1,19.2h11.6V253L550.7,253z"/>
	</g>
	<g class="st1">
		<path class="st2" d="M581,237.3h6.7v15.5h-32.9v-15.5h6.7v-32.2h-6.7v-15.4h32.9v15.4H581V237.3z"/>
	</g>
	<g class="st1">
		<path class="st2" d="M649.7,253h-55.1v-15.6h6v-32.2h-6v-15.4h33.9v15.4H620v31h12.5v-8h17.1V253z"/>
	</g>
	<g class="st1">
		<path class="st2" d="M709.5,253h-55.1v-15.6h6v-32.2h-6v-15.4h33.9v15.4h-8.4v31h12.5v-8h17.1V253z"/>
	</g>
	<g class="st1">
		<path class="st2" d="M449.3,263.2c20.4,0,34.3,12.1,34.3,31.4c0,19.4-13.9,31.7-34.3,31.7h-32.8v-15.5h6v-32.2h-6v-15.4H449.3z
			 M449.3,309.1c8.6,0,14.5-6,14.5-14.4s-6-14.4-14.5-14.4h-7.5v28.8H449.3z"/>
	</g>
	<g class="st1">
		<path class="st2" d="M555.2,326.3h-28.7v-8.4l-7.2-9.4h-5.7v17.8h-25.4v-15.5h6v-32.2h-6v-15.4h34.5c17.5,0,27.7,8.4,27.7,23
			c0,8.2-3.7,14.5-10.3,18.4l5.3,6.3h9.8L555.2,326.3L555.2,326.3z M522.8,293c4.8,0,8-2.7,8-6.8c0-3.9-3.3-6.5-8-6.5h-9.1V293
			H522.8z"/>
	</g>
	<g class="st1">
		<path class="st2" d="M585.4,310.8h6.7v15.5h-32.8v-15.5h6.7v-32.2h-6.7v-15.4H592v15.4h-6.7L585.4,310.8L585.4,310.8z"/>
	</g>
	<g class="st1">
		<path class="st2" d="M653.9,326.3H599v-15.5h6v-32.2h-6v-15.4h33.7v15.4h-8.3v30.9h12.5v-8H654v24.9H653.9z"/>
	</g>
	<g class="st1">
		<path class="st2" d="M713.6,326.3h-54.9v-15.5h6v-32.2h-6v-15.4h33.7v15.4h-8.3v30.9h12.5v-8h17.1v24.9H713.6z"/>
		<path class="st2" d="M760.9,288.2c10.3,2.2,16.6,7.2,16.6,18.4c0,13.3-9.1,21.1-23.5,21.1c-7.3,0-13.5-1.9-17.9-5.8v4.5h-15.6
			v-21.2h16.7c2.2,4.4,6.8,6.4,12.5,6.4c4.5,0,6.3-1.5,6.3-3.4c0-1.5-1-3.1-4.8-3.9l-12.5-2.7c-12.4-2.6-18.1-8.6-18.1-18.6
			c0-13.7,10.7-20.8,24.1-20.8c5.4,0,11.7,1.2,16.5,5v-3.8h15.4v20.1h-18.1c-1.4-3.3-4.8-5.7-9.8-5.7c-3.4,0-5.7,1.2-5.7,3.8
			c0,2.3,1.9,3.4,4.8,3.9L760.9,288.2z"/>
	</g>
	<path class="st3" d="M325.4,341.4c-40.7,2.9-75.9-27.9-78.7-68.4c-2.4-35.9,21.3-68.5,56.4-76.8l-0.4-6.1l-0.4-6.1l-5,0.4l-5,0.4
		c-1.1,0.1-2.3-0.3-3.1-1c-0.8-0.7-1.4-1.8-1.5-2.9l-0.3-7.5l-0.5-7.1c0-1.1,0.3-2.3,1.1-3.1c0.7-0.8,1.8-1.4,2.9-1.5l21.2-1.6
		l21.2-1.6c1.1-0.1,2.2,0.3,3,1.1c1,0.8,1.5,1.9,1.5,3c0,2.3,0.3,4.6,0.4,6.9c0.1,2.3,0.4,4.6,0.5,7.2c0.1,2.3-1.6,4.4-3.9,4.6
		l-4.9,0.3l-5,0.4l0.7,6.5l0.4,6.1c13.1,1.1,25.7,5.6,36.4,13.2l4.5-5l4.5-5c1.5-1.8,4.2-2,6-0.5c0,0,0,0,0.1,0.1l5.3,4.8
		c1.6,1.5,3.3,2.9,5.3,4.5c0.8,0.7,1.4,1.8,1.5,2.9c0.1,1.1-0.3,2.3-1.1,3.1l-5,5.6l-4.9,5.4l0,0l0,0c4.2,5.6,7.6,11.6,10.1,18.1
		c2.6,6.8,4.2,13.9,4.8,20.9C396,303.2,365.8,338.2,325.4,341.4z"/>
	
		<rect x="378.5" y="191.7" transform="matrix(0.6524 -0.7579 0.7579 0.6524 -21.4005 359.2762)" class="st3" width="4.9" height="22.6"/>
	
		<rect x="287.2" y="160.4" transform="matrix(0.9972 -7.463147e-02 7.463147e-02 0.9972 -11.9454 23.815)" class="st3" width="51" height="22.7"/>
	<path class="st2" d="M380.9,263.3c2.6,33.6-22.7,63-56.3,65.5c-33.7,2.6-63.1-22.7-65.5-56.3c-2.6-33.7,22.7-63,56.3-65.5
		c16.2-1.2,32.2,4.1,44.5,14.7C372,232.2,379.6,247.3,380.9,263.3z"/>
	<path class="st0" d="M375.2,264c2.2,30.3-20.7,56.7-51,59c-30.3,2.2-56.7-20.7-59-51c-2.2-30.3,20.7-56.7,51-59
		c14.5-1.1,28.8,3.7,39.8,13.2C367.3,235.8,374.1,249.4,375.2,264z"/>
	<polygon class="st2" points="315.2,210 320,268.2 376.7,263.7 371.6,242.2 354.2,222.1 337.5,213.5 	"/>
	<path class="st2" d="M304.3,273.6c11.4-0.8,19.7,5,20.4,15.6c0.8,10.6-6.5,17.8-17.9,18.6l-18.4,1.4l-0.5-8.4h3.4l-1.4-17.5h-3.4
		L286,275L304.3,273.6z M306.1,298.7c4.4-0.1,7.8-3.8,7.5-8.2c-0.1-4.4-3.8-7.8-8.2-7.5c-0.1,0-0.3,0-0.5,0l-4.2,0.3l1.2,15.4H306.1
		z"/>
	<path class="st2" d="M362.5,303.7l-16,1.2l-0.4-4.6l-4.4-5h-3.1l0.8,9.7l-14.3,1.1l-0.5-8.4l3.4-0.3l-1.4-17.5h-3.4l-0.7-8.4
		l19.3-1.4c9.8-0.8,15.8,3.4,16.5,11.3c0.4,4.1-1.5,8.2-5,10.5l3.3,3.1l5.4-0.4L362.5,303.7z M343.1,287c2.7,0,4.4-1.8,4.2-4.1
		c-0.1-2.3-2-3.4-5-3.1l-5,0.4l0.5,7.2L343.1,287z"/>
	<path class="st2" d="M308.7,247.3c6.3,0.8,10.3,3.4,10.9,9.7c0.5,7.6-4.6,12.4-13.3,13.1c-3.8,0.4-7.8-0.4-11-2.4v2.4l-9.5,0.7
		l-0.7-12.2l10.1-0.8c1.8,2.4,4.9,3.7,7.9,3c2.7,0,3.8-1.1,3.7-2.3c-0.1-1.1-0.7-1.8-3-2l-7.6-1c-7.6-1-11.3-3.9-11.8-9.8
		c-0.5-7.8,5.7-12.4,13.7-12.9c3.5-0.4,6.9,0.4,10.1,2v-2l9.4-0.7l1,11.3l-11,0.8c-1.2-2.2-3.7-3.3-6.1-2.9c-2,0-3.4,1-3.3,2.4
		c0.1,1.5,1.4,1.9,3.1,2L308.7,247.3z"/>
	<path class="st0" d="M363.2,264.9l-20.1,1.5l-0.5-7.5l-3.4-3.8l-4.4,5l0.7,6.9l-15.5,1.2l-0.7-8.8l3.7-0.3l-1.4-15.6h-3.7l-1-11.4
		l15.4-1.2l1.2,15.1l6.8-7.9l-0.5-7.5l20-1.5l0.7,8.7l-6.5,0.5l-6.8,7.9l8.3,10.3l6.9-0.5L363.2,264.9z"/>
	<path class="st2" d="M308.7,247.3c6.3,0.8,10.3,3.4,10.9,9.7c0.5,7.6-4.6,12.4-13.3,13.1"/>
</g>
</svg>
