<svg id="Light" xmlns="http://www.w3.org/2000/svg" viewBox="0 0 29.44 36.55"><defs><style>.cls-1{fill:#333;}.cls-2{fill:#fff;}.cls-3{fill:#00a4dd;}</style></defs><g id="Icon"><path class="cls-1" d="M21.2,38.56a14.72,14.72,0,0,1-4.44-29l-.1-1.22-.09-1.21-1,.07-1,.07a.85.85,0,0,1-.62-.2.84.84,0,0,1-.29-.58l-.11-1.41-.1-1.41a.86.86,0,0,1,.2-.62.88.88,0,0,1,.58-.29l4.23-.32,4.24-.32a.87.87,0,0,1,.61.21.83.83,0,0,1,.3.58l.09,1.38c0,.46.07.93.12,1.44a.86.86,0,0,1-.2.62.9.9,0,0,1-.58.29l-1,.07-1,.08L21.18,8l.09,1.21a14.65,14.65,0,0,1,7.27,2.62l.9-1,.9-1a.84.84,0,0,1,1.2-.09l1.07.94c.33.29.66.57,1.08.91a.88.88,0,0,1,.29.58.82.82,0,0,1-.2.61l-1,1.12-1,1.12,0,0,0,0a14.5,14.5,0,0,1,2,3.61,14.76,14.76,0,0,1-2.58,14.9A14.69,14.69,0,0,1,21.2,38.56Z" transform="translate(-5.38 -2.05)"/><rect class="cls-1" x="30.04" y="10.45" width="4.51" height="0.99" transform="translate(9.58 -20.47) rotate(40.72)"/><rect class="cls-1" x="13.57" y="2.42" width="10.19" height="4.53" transform="translate(-5.68 -0.64) rotate(-4.28)"/><path class="cls-2" d="M32.25,23a12.19,12.19,0,1,1-4.2-8.33A12.14,12.14,0,0,1,32.25,23Z" transform="translate(-5.38 -2.05)"/><path class="cls-3" d="M31.12,23.13a11.06,11.06,0,1,1-3.81-7.55A11,11,0,0,1,31.12,23.13Z" transform="translate(-5.38 -2.05)"/><polygon class="cls-2" points="13.76 10.28 14.72 21.9 26.05 21 25.04 16.71 21.57 12.71 18.22 10.98 13.76 10.28"/><path class="cls-2" d="M17,25c2.28-.17,3.93,1,4.09,3.12s-1.3,3.55-3.57,3.72l-3.67.27-.12-1.68.67-.05-.26-3.49-.67.05-.13-1.67Zm.38,5a1.57,1.57,0,1,0-.24-3.13l-.83.06.24,3.13Z" transform="translate(-5.38 -2.05)"/><path class="cls-2" d="M28.59,31l-3.19.24-.07-.92-.87-.95-.63,0L24,31.36l-2.83.22L21,29.9l.67,0-.26-3.49-.67.05-.13-1.67,3.85-.29c2-.15,3.16.68,3.28,2.26a2.16,2.16,0,0,1-1,2.08l.64.63,1.09-.08Zm-3.88-3.34c.54,0,.88-.37.85-.82s-.42-.67-.95-.63l-1,.07.11,1.45Z" transform="translate(-5.38 -2.05)"/><path class="cls-2" d="M17.84,19.79c1.26.16,2.07.67,2.16,1.93.12,1.52-.92,2.48-2.67,2.61a3.33,3.33,0,0,1-2.21-.5l0,.5-1.89.14-.18-2.41,2-.15a1.57,1.57,0,0,0,1.57.61c.54,0,.75-.22.73-.44s-.14-.35-.6-.41l-1.54-.2c-1.52-.18-2.26-.8-2.35-1.95-.11-1.56,1.13-2.47,2.73-2.59a3.39,3.39,0,0,1,2,.42l0-.41,1.86-.14.17,2.29-2.18.16a1.25,1.25,0,0,0-1.24-.57c-.41,0-.68.19-.65.49s.25.37.61.41Z" transform="translate(-5.38 -2.05)"/><path class="cls-3" d="M28.73,23.29l-4,.32-.11-1.5-.67-.76-.88,1,.1,1.37L20.07,24l-.14-1.76.73-.05L20.42,19l-.73.05-.18-2.29,3.08-.24.24,3L24.14,18,24,16.45l4-.31.13,1.75-1.29.1L25.45,19.6l1.75,2,1.39-.11Z" transform="translate(-5.38 -2.05)"/><path class="cls-2" d="M17.66,16.93m.18,2.85c1.26.16,2.07.67,2.16,1.94.12,1.51-.92,2.47-2.67,2.6m-1.06-5.64" transform="translate(-5.38 -2.05)"/></g></svg>