<svg id="Light_BG" data-name="Light BG" xmlns="http://www.w3.org/2000/svg" viewBox="0 0 106.8 38.24"><defs><style>.cls-1{font-size:18.55px;letter-spacing:0.01em;}.cls-1,.cls-11,.cls-6{fill:#333;}.cls-1,.cls-6{font-family:Choplin-ExtraBold, Choplin;font-weight:800;}.cls-2{letter-spacing:0em;}.cls-3{letter-spacing:0em;}.cls-4{letter-spacing:-0.01em;}.cls-5{letter-spacing:0.02em;}.cls-6{font-size:18.51px;}.cls-7{letter-spacing:-0.01em;}.cls-8{letter-spacing:0em;}.cls-9{letter-spacing:-0.01em;}.cls-10{letter-spacing:0.02em;}.cls-12{fill:#fff;}.cls-13{fill:#00a4dd;}</style></defs><text class="cls-1" transform="translate(33.39 18.85)">S<tspan class="cls-2" x="12.43" y="0">K</tspan><tspan class="cls-3" x="27.58" y="0">I</tspan><tspan class="cls-4" x="35.5" y="0">L</tspan><tspan class="cls-5" x="47.45" y="0">L</tspan></text><text class="cls-6" transform="translate(33.36 33.48)"><tspan class="cls-7">D</tspan><tspan x="14.33" y="0">R</tspan><tspan class="cls-8" x="28.49" y="0">I</tspan><tspan class="cls-9" x="36.4" y="0">L</tspan><tspan class="cls-10" x="48.32" y="0">LS</tspan></text><g id="Icon"><path class="cls-11" d="M23,47.52a14.72,14.72,0,0,1-4.45-29l-.09-1.22-.09-1.22-1,.08-1,.07a.83.83,0,0,1-.62-.2.8.8,0,0,1-.29-.58L15.39,14l-.11-1.41a.88.88,0,0,1,.21-.62.78.78,0,0,1,.58-.29l4.23-.32,4.24-.32a.79.79,0,0,1,.61.21.83.83,0,0,1,.3.58c0,.47.05.92.09,1.38s.07.92.12,1.44a.87.87,0,0,1-.79.91l-1,.07-1,.08L23,17l.09,1.22a14.75,14.75,0,0,1,7.27,2.62l.9-1,.9-1a.84.84,0,0,1,1.2-.09l1.07.94c.33.29.66.56,1.07.9a.89.89,0,0,1,.3.58.85.85,0,0,1-.21.62l-1,1.12-1,1.11,0,0,0,0a14.53,14.53,0,0,1,2,3.61,14.87,14.87,0,0,1,.94,4.19A14.74,14.74,0,0,1,23,47.52Z" transform="translate(-7.19 -11.01)"/><rect class="cls-11" x="31.84" y="19.41" width="4.51" height="0.99" transform="translate(14.05 -28.44) rotate(40.72)"/><rect class="cls-11" x="15.38" y="11.38" width="10.19" height="4.53" transform="translate(-8.15 -9.44) rotate(-4.28)"/><path class="cls-12" d="M34.06,31.94a12.19,12.19,0,1,1-4.2-8.32A12.16,12.16,0,0,1,34.06,31.94Z" transform="translate(-7.19 -11.01)"/><path class="cls-13" d="M32.93,32.08a11,11,0,1,1-3.81-7.55A11,11,0,0,1,32.93,32.08Z" transform="translate(-7.19 -11.01)"/><polygon class="cls-12" points="13.76 10.28 14.72 21.9 26.05 21 25.04 16.71 21.57 12.71 18.22 10.98 13.76 10.28"/><path class="cls-12" d="M18.78,34c2.28-.17,3.93,1,4.08,3.12s-1.29,3.55-3.57,3.72l-3.66.27-.12-1.68.67,0-.26-3.49-.67,0-.13-1.67Zm.37,5a1.57,1.57,0,1,0-.23-3.13l-.83.06L18.33,39Z" transform="translate(-7.19 -11.01)"/><path class="cls-12" d="M30.4,40l-3.19.24-.07-.92-.88-1-.63,0,.15,1.93-2.84.21-.12-1.68.67-.05-.26-3.49-.67,0-.13-1.67,3.85-.28c1.95-.15,3.16.68,3.28,2.26a2.19,2.19,0,0,1-1,2.08l.64.63,1.09-.08Zm-3.88-3.35c.54,0,.88-.36.85-.81s-.42-.67-1-.63l-1,.07.11,1.45Z" transform="translate(-7.19 -11.01)"/><path class="cls-12" d="M19.65,28.74c1.26.16,2.07.68,2.16,1.94.11,1.52-.92,2.48-2.67,2.61a3.39,3.39,0,0,1-2.21-.5l0,.5-1.89.14L14.9,31l2-.15a1.6,1.6,0,0,0,1.57.61c.54,0,.75-.22.73-.45s-.14-.35-.61-.41l-1.53-.19c-1.53-.18-2.26-.8-2.35-1.95-.11-1.56,1.13-2.47,2.73-2.59a3.39,3.39,0,0,1,2,.42l0-.42,1.86-.13L21.5,28l-2.19.17a1.22,1.22,0,0,0-1.23-.57c-.41,0-.68.19-.66.49s.26.37.62.41Z" transform="translate(-7.19 -11.01)"/><path class="cls-13" d="M30.53,32.25l-4,.32-.12-1.5-.67-.76-.88,1L25,32.69l-3.08.24-.14-1.76.73-.06L22.23,28l-.73,0-.18-2.28,3.08-.24.23,3L26,26.91l-.11-1.5,4-.31.14,1.75-1.29.1-1.39,1.6L29,30.6l1.39-.11Z" transform="translate(-7.19 -11.01)"/><path class="cls-12" d="M19.47,25.89m.18,2.85c1.26.16,2.06.67,2.16,1.93.11,1.52-.92,2.48-2.67,2.61m-1.06-5.65" transform="translate(-7.19 -11.01)"/></g></svg>